<svg id="svg2" xmlns="http://www.w3.org/2000/svg" viewBox="0 0 466.99 250.24"><defs><style>.cls-1,.cls-2{stroke:#000;}.cls-1{stroke-width:0.13px;}.cls-2{fill:none;stroke-width:7px;}.cls-3,.cls-4{isolation:isolate;}.cls-4{font-size:36px;fill:#fff;font-family:ArialMT, Arial;}.cls-5{letter-spacing:-0.02em;}.cls-6{letter-spacing:-0.07em;}</style></defs><title>favicon</title><path id="path3795" class="cls-1" d="M507.85,200c0,54.24-57.08,98.21-127.5,98.21s-127.5-44-127.5-98.21h0c0-54.24,57.09-98.21,127.5-98.21s127.5,44,127.5,98.21Z" transform="translate(-146.8 -47.98)"/><path id="path3801" class="cls-1" d="M342.25,129l-32.34,17.77-32.35,17.77-11.84-58.18L253.87,48.16l44.19,40.41Z" transform="translate(-146.8 -47.98)"/><path id="path3801-3" class="cls-1" d="M420.81,134.37l32.34,17.77,32.34,17.77,11.85-58.17,11.85-58.18L465,94Z" transform="translate(-146.8 -47.98)"/><path id="path3821" class="cls-2" d="M249.45,193.29l-96.76-32.4" transform="translate(-146.8 -47.98)"/><path id="path3821-2" class="cls-2" d="M251.78,223.52l-93.57,40.72" transform="translate(-146.8 -47.98)"/><path id="path3821-2-6" class="cls-2" d="M248.87,209.85l-102,.92" transform="translate(-146.8 -47.98)"/><path id="path3821-8" class="cls-2" d="M511.14,192.47l96.76-32.41" transform="translate(-146.8 -47.98)"/><path id="path3821-2-2" class="cls-2" d="M508.81,222.69l93.57,40.72" transform="translate(-146.8 -47.98)"/><path id="path3821-2-6-7" class="cls-2" d="M511.72,209l102,.92" transform="translate(-146.8 -47.98)"/><g id="text3909" class="cls-3"><text class="cls-4" transform="translate(184.38 108.75) scale(0.91 1)">LIGH<tspan class="cls-5" x="84.02" y="0">T</tspan></text><text class="cls-4" transform="translate(221.05 142.95) scale(0.91 1)">&amp; </text><text class="cls-4" transform="translate(119.51 177.15) scale(0.91 1)">INFORM<tspan class="cls-6" x="141.98" y="0">A</tspan><tspan x="163.32" y="0">TION</tspan></text></g></svg>